# xmcd
#
# Track frame offsets:
#	150
#	24956
#	39708
#	63400
#	83119
#	92351
#	109367
#	130272
#	156269
#	174070
#
# Disc length: 2561 seconds
# Revision: 0
# Processed by: cddbd v1.5.2PL0 Copyright (c) Steve Scherf et al.
# Submitted via: dBpowerAMP V12.0
#
DISCID=7309ff0a
DTITLE=David Grier - Evocative
DYEAR=2009
DGENRE=Country
TTITLE0=Meditate
TTITLE1=As It Rolls To the Sea
TTITLE2=Road To Hope
TTITLE3=Two Turns Home
TTITLE4=As Easy As Falling Off a Log
TTITLE5=Four Dogs Jogging
TTITLE6=Teela
TTITLE7=What a Way To Go
TTITLE8=High Atop Princess Cove
TTITLE9=The End of a Good Day
EXTD=
EXTT0=
EXTT1=
EXTT2=
EXTT3=
EXTT4=
EXTT5=
EXTT6=
EXTT7=
EXTT8=
EXTT9=
PLAYORDER=
